<svg xmlns="http://www.w3.org/2000/svg" width="777" height="700" fill="none" viewBox="0 0 777 700"><circle cx="388.244" cy="363.244" r="330" fill="#fbce51"/><g fill="#313131" style="mix-blend-mode:overlay"><path d="m530.78 646.3-.392-.818 1.497-1.025-4.179-8.351-.333 2.763-1.905 8.249.184.456 1.559-.498.392.818-4.597 2.333-.392-.818 1.256-.886-5.147-10.444-1.464.524-.392-.818 4.692-2.308.392.818-1.351.861 4.249 8.472.282-2.573 1.956-8.439-.348-.603-1.68.569-.392-.818 4.692-2.308.392.818-1.351.86 5.147 10.444 1.439-.429.392.818zM519.404 651.502c-.507.374-.868.582-1.23.791-.361.209-.723.418-1.059.531-1.395.645-2.593.935-3.569.775-.976-.159-1.66-.648-2.096-1.681-.366-.914-.448-1.75-.123-2.58.324-.83.908-1.488 1.656-2.001-1.033.436-1.965.492-2.82.263-.83-.324-1.394-.883-1.786-1.701-.575-1.274-.605-2.301-.135-3.295.47-.995 1.51-1.836 3.147-2.62.697-.323 1.369-.55 1.895-.613a6.8 6.8 0 0 1 1.388-.239c.311-.019.527-.063.622-.037l.997 3.119-.818.392-1.493-2.03c-.691-.083-1.458.119-2.491.555-.793.297-1.231.791-1.409 1.456s-.072 1.407.295 2.32c.322.697.791 1.23 1.43 1.504q.96.41 2.51-.245l1.154-.505.462.938-1.034.436c-.456.184-.843.487-1.255.886a4 4 0 0 0-.668 1.349c-.032.501.006 1.122.258 1.699.297.793.791 1.23 1.361 1.383s1.217.021 2.01-.276c.482-.279.938-.462 1.23-.791q.438-.494.514-.779l-.353-1.724 1.059-.531 1.341 2.6a10 10 0 0 0-.99.651M504.181 656.998l1.509-.309.366.913-2.377.891c-.362.209-.913.366-1.49.619s-.939.462-1.18.601c-1.585.594-2.853.763-3.708.534s-1.514-.813-1.855-1.821c-.297-.793-.378-1.629-.079-2.364.204-.76.787-1.419 1.51-1.836-1.128.41-2.085.561-2.915.237s-1.489-.908-1.83-1.916c-.505-1.154-.415-2.25.176-3.314.59-1.064 1.751-1.976 3.672-2.683a6.6 6.6 0 0 1 1.224-.385c.887-.272 1.465-.524 1.68-.569l2.283-.916.271.888-1.42.74zm-7.904-9.655c-1.154.505-1.902 1.018-2.296 1.727s-.287 1.451-.016 2.338c.367.914.835 1.447 1.475 1.72q.96.41 2.51-.244c1.154-.506 1.921-.708 2.283-.917l-1.965-5.211c-.406-.007-.983.246-1.991.587m3.263 6.068-.913.367q-1.189.445-1.599 1.405c-.273.64-.261 1.356.131 2.174.297.793.765 1.325 1.31 1.573s1.381.167 2.415-.269c.456-.184.818-.392 1.274-.576l.362-.208-1.851-4.876c-.241.139-.577.253-1.129.41M489.343 663.717l-1.921.708-8.41-10.81-1.172.195-.272-.887 4.705-1.592.271.888-1.395.645 1.702 2.391 5.161-1.775-.047-2.864-1.604.283-.272-.888 4.248-1.408.272.888-1.059.531zm-1.987-2.467.955 1.376-.137-1.768-.157-6.256-4.489 1.548zM474.727 654.402c1.14.306 2.014.846 2.787 1.765.772.92 1.398 2.005 1.732 3.419.36 1.318.434 2.56.198 3.821a5.47 5.47 0 0 1-1.626 3.028c-.825.797-1.814 1.449-3.038 1.834-.887.272-2.06.467-3.397.516l-.621.037-.757-3.258 1.224-.386 1.157 2.144c.19.051.57.153.975.159.406.007.958-.15 1.604-.283a3.5 3.5 0 0 0 1.859-1.233c.463-.589.787-1.419.826-2.325a10.3 10.3 0 0 0-.376-3.157c-.316-1.103-.752-2.137-1.359-2.91-.608-.774-1.241-1.453-1.976-1.752s-1.615-.433-2.503-.161c-.646.132-1.128.41-1.369.549s-.533.469-.705.728l-.224 1.977-1.172.195-.314-2.63c.215-.044.577-.253 1.059-.531a4.6 4.6 0 0 1 1.205-.696c.361-.209.913-.366 1.464-.524 1.059-.531 2.207-.631 3.347-.326M460.64 668.962c-.375 1.02-.94 1.989-1.619 2.622-.799.702-1.643 1.189-2.6 1.34-1.198.29-2.294.2-3.219-.149-.925-.35-1.774-.985-2.451-1.879a7.5 7.5 0 0 1-1.447-3.342q-.463-2.263-.147-4.012c.236-1.261.801-2.23 1.531-3.053s1.668-1.284 2.771-1.6c1.198-.29 2.32-.295 3.34.08s1.773.985 2.476 1.784a7.5 7.5 0 0 1 1.447 3.342l2.922-.643-1.223-5.319-1.578.188-.176-.862 5.008-1.204.176.862-1.464.524 2.673 11.31 1.458-.119.176.862-4.887 1.135-.177-.862 1.465-.524-1.135-4.888-2.948.738c.024 1.432-.092 2.624-.372 3.669m-2.067.872c.426-1.21.428-2.737-.038-4.797-.448-1.75-1.093-3.145-1.986-3.996-.892-.85-1.912-1.225-3.205-.96-1.199.29-1.903 1.018-2.304 2.133s-.332 2.762.134 4.823c.448 1.749.998 3.119 1.89 3.969.867.946 1.913 1.226 3.016.91 1.268-.169 2.067-.872 2.493-2.082M439.366 668.151c-.564-.559-1.387-1.289-2.254-2.234-.633-.679-1.006-1.186-1.335-1.478q-.494-.439-.779-.514l-.691-.084-.176-.862 2.25-.415q.466-.028 1.064.59a22 22 0 0 1 1.709 1.986 27 27 0 0 0 2.038 2.278q.702.8 1.349.667l1.173-.195-.938-5.243-1.648.068-.177-.862 5.027-.894.151.957-1.439.429 2.027 11.442 1.527.002.151.957-4.906.825-.1-1.148 1.465-.524-.913-5.337-1.604.283-2.821 5.967 1.553-.094.151.958-4.501.831-.151-.957 1.44-.43 3.062-6.105c-.501-.033-1.115-.401-1.704-.864M431.012 663.977c.994.47 1.722 1.174 2.253 2.233.557.964.942 2.188 1.181 3.576a7.6 7.6 0 0 1-.328 3.885 6.7 6.7 0 0 1-1.86 2.761c-.895.677-1.833 1.138-3.101 1.308-1.914.302-3.53-.131-4.656-1.248-1.127-1.117-1.937-2.658-2.162-4.857-.214-1.483-.073-2.77.328-3.885.426-1.21 1.061-2.058 1.885-2.856q1.342-1.016 3.101-1.308c1.268-.169 2.364-.079 3.359.391m.773 10.8c.521-1.185.713-2.661.462-4.765-.207-1.889-.757-3.259-1.599-4.299-.841-1.041-1.861-1.416-3.034-1.221s-2.042.777-2.563 1.962c-.521 1.184-.738 2.756-.462 4.765.207 1.889.757 3.259 1.624 4.204.772.92 1.767 1.39 3.034 1.221 1.122-.005 2.016-.683 2.538-1.867M419.638 677.532l1.502.097.056.931-2.51.245c-.405-.007-.957.151-1.578.188-.647.132-1.052.125-1.268.169-1.673.163-2.959.022-3.738-.492s-1.197-1.237-1.322-2.289a3.9 3.9 0 0 1 .516-2.307c.368-.614 1.117-1.126 2.004-1.398-1.147.1-2.123-.06-2.902-.574s-1.171-1.332-1.226-2.264c-.075-1.242.205-2.287 1.055-3.18.851-.893 2.22-1.442 4.299-1.598.431-.088.837-.082 1.337-.049.932-.056 1.553-.094 1.743-.043l2.51-.244.056.932-1.508.309zm-4.986-11.42c-1.243.074-2.156.441-2.619 1.03q-.837.844-.611 2.281c.056.931.378 1.629.897 1.972.52.343 1.375.572 2.427.446 1.242-.074 2.079-.156 2.415-.269l-.456-5.521c-.38-.102-1.001-.065-2.053.061m1.557 6.732-1.052.126c-.837.081-1.534.404-1.877.923s-.547 1.279-.465 2.116c.081.837.308 1.509.828 1.852.519.342 1.279.546 2.331.421.431-.089.932-.056 1.389-.239l.431-.089-.438-5.21c-.31.019-.621.038-1.147.1M390.286 680.26l-.056-.932 1.603-.283-.353-11.605-1.787-.173-.056-.931 5.228-.127.056.931-1.578.189.328 11.699 5.945-.138-.328-11.7-1.692-.148-.056-.932 5.229-.126.056.931-1.484.214.354 11.605 1.572.217.055.932zM385.878 667.06c.848.635 1.551 1.434 1.961 2.563.436 1.033.606 2.301.63 3.733-.072 1.407-.308 2.668-.898 3.732s-1.321 1.887-2.285 2.444a6.47 6.47 0 0 1-3.189.877c-1.933-.009-3.377-.701-4.383-1.888-.981-1.281-1.454-2.936-1.464-5.179-.024-1.433.333-2.763.923-3.827s1.346-1.982 2.31-2.539a6.3 6.3 0 0 1 3.284-.851c1.217.02 2.262.3 3.111.935m-.755 10.798c.686-1.038 1.093-2.559 1.127-4.587-.016-1.838-.325-3.346-.951-4.431s-1.595-1.65-2.812-1.67-2.181.536-2.867 1.575-1.118 2.654-1.152 4.682c-.009 1.933.23 3.321.951 4.431.626 1.084 1.595 1.649 2.812 1.67 1.173-.195 2.112-.657 2.892-1.67M370.371 670.952c.364-1.736.79-2.946 1.424-3.795.318-.424.61-.753.971-.962a2.34 2.34 0 0 1 1.198-.29c.596.058 1.002.065 1.287.141l-.002 1.527c-.285-.076-.786-.108-1.381-.166q-.286-.077-.647.132c-.241.139-.387.304-.533.468-1.098 1.438-1.697 4.435-1.988 8.94l-.097 1.502 2.142.371-.039.906-10.824-.66.039-.906 1.768-.137.768-11.61-1.856-.294.039-.906 5.697.406-.039.907-1.959.086-.768 11.61 3.815.207.148-1.692c.275-2.167.499-4.144.837-5.785M358.493 677.649l1.52.408-.134.88-9.505-1.019.073-2.934 1.097.09.327 1.819 4.619.627.59-5.241-3.074-.314-.407 1.521-1.001-.065.429-4.265 1.002.065.067 1.648 3.048.409.571-5.551-5.291-.399-1.207 2.223-1.09-.496.866-3.231 10.291 1.128-.134.881-1.528-.002zM343.057 675.957l3.168.34 1.209-3.75 1.165.21-1.013 4.923-11.545-1.769.513-4.955 1.166.21.052 3.987 3.212.555 1.7-11.666-2.591-.592.134-.881 7.046 1.073-.134.881-2.408-.136zM329.727 666.784l.881.134c.336-.114.748-.513 1.091-1.032s.927-1.178 1.441-1.957c.514-.778.978-1.367 1.295-1.792.317-.424.558-.563.748-.512l2.522.472-.134.881-.742.107c-.215.044-.431.088-.723.417-.266.234-.704.728-1.167 1.317-.61.753-1.073 1.342-1.485 1.741-.438.494-.8.702-1.256.886q1.206.628 1.69 1.675.483 1.046.244 2.51c-.287 1.451-.947 2.394-1.86 2.761-1.008.341-2.251.415-3.892.078l-1.33-.357-1.331-.356-2.616-.498.134-.881 1.597.123 2.244-11.418-1.685-.553.134-.881 5.424 1.046-.134.88-1.787-.173-.893 4.854zm-2.543 6.448 1.426.382c.975.16 1.692.148 2.294-.2s.971-.962 1.156-2.033c.16-.976.078-1.812-.365-2.44s-1.057-.997-2.007-1.251c-.976-.16-1.641-.338-1.952-.319l-1.097 5.613zM316.603 670.906l3.187.65 1.494-3.674 1.235.331-1.488 4.796-11.291-2.719.919-4.949 1.14.306-.353 3.979 3.136.84 2.676-11.505-2.541-.783.229-.855 6.989 1.669-.23.855-2.452-.352zM304.599 655.263c.798.825 1.234 1.859 1.429 3.031s.054 2.46-.328 3.885c-.356 1.33-1.067 2.464-1.892 3.262-.851.892-1.91 1.423-3.013 1.739-1.198.29-2.294.2-3.53-.131-.95-.255-1.944-.725-3.199-1.367l-.544-.247 1.151-3.155 1.235.331-.231 2.383c.139.241.399.412.754.609.354.197.899.445 1.469.597.76.204 1.477.192 2.244-.01a3.87 3.87 0 0 0 1.934-1.518c.61-.754 1.08-1.748 1.386-2.889s.49-2.211.46-3.238c-.031-1.026-.302-1.914-.72-2.637q-.626-1.085-2.051-1.466c-.666-.179-1.141-.306-1.546-.313a1.9 1.9 0 0 0-.983.246l-1.219 1.507-1.089-.495 1.163-2.439c.285.076.69.083 1.191.115.501.033.906.04 1.312.046.405.007.976.16 1.546.313 1.235.331 2.299.922 3.071 1.841M286.16 663.259l.324-.83 1.831.389 3.085-8.85-2.176 1.657-7.211 4.485-.128.475 1.54.718-.325.83-4.84-1.704.325-.83 1.451.287 3.765-11.01-1.445-.693.325-.83 4.935 1.73-.325.83-1.641-.338-3.109 8.945 2.055-1.588 7.427-4.529.178-.665-1.634-.744.324-.83 4.935 1.73-.324.83-1.546-.312-3.765 11.01 1.349.667-.325.83zM267.067 656.207l1.653-4.65 1.21.426-.898 3.732 3.744 1.614 4.36-10.952-2.983-1.411.324-.83 6.829 2.645-.324.83-1.996-.535-4.215 10.788 1.774.984-.324.83zM264.528 653.897l1.203.832-.324.83-4.643-2.059.324-.83 1.521.408 2.033-4.548-6.017-2.631-2.034 4.548 1.299.857-.325.83-4.548-2.034.325-.83 1.425.382 4.69-10.66-1.324-.762.325-.83 4.548 2.033-.325.83-1.495-.502-2.256 4.997 6.018 2.631 2.256-4.997-1.419-.788.324-.83 4.738 2.085-.324.829-1.4-.477zM246.817 647.012l-1.799-.889 1.708-13.599-.943-.66.419-.804 4.402 2.198-.419.804-1.495-.502-.454 2.832 4.852 2.421 1.993-2.115-1.394-.882.42-.805 3.952 1.976-.419.804-1.115-.4zm.244-3.194-.338 1.642 1.168-1.317 4.372-4.533-4.212-2.147zM239.507 633.239q1.608-2.014 2.912-2.887a3.8 3.8 0 0 1 1.249-.48c.406.007.786.109 1.236.331.544.248.874.54 1.133.711l-.572 1.375c-.259-.172-.614-.369-1.228-.737a.63.63 0 0 0-.571-.153c-.215.044-.431.088-.672.228-1.541.809-3.42 3.259-5.706 7.23l-.762 1.324 1.792 1.295-.419.804-9.386-5.265.419-.804 1.66.648 5.684-10.19-1.558-1.029.42-.804 5.06 2.782-.419.804-1.73-.769-5.658 10.096 3.287 1.797.813-1.514c.889-1.798 1.943-3.451 3.016-4.793M211.458 626.538l.514-.779 1.635.743 6.203-9.847-1.342-1.073.514-.779 4.604 2.965-.514.779-1.539-.718-6.204 9.848 1.342 1.073-.514.778zm12.813 1.6c-1.298-.858-2.07-1.778-2.411-2.786q-.512-1.512.555-3.212c.736-1.229 1.726-1.88 2.899-2.075 1.172-.195 2.408.136 3.731.898.165.146.355.197.52.343.164.146.329.292.519.342.589.464 1.108.807 1.532 1.124l2.172 1.397-.514.779-1.444-.693-6.204 9.848 1.153 1.022-.515.778-4.534-2.844.514-.779 1.729.769 2.305-3.661zm5.343-5.495c-.165-.146-.425-.318-.874-.54-.874-.54-1.729-.769-2.497-.567s-1.42.74-2.08 1.683c-.54.874-.744 1.635-.542 2.402q.303 1.15 1.614 1.96l1.653 1.054 3.359-5.313c-.209-.362-.374-.508-.633-.679M205.02 620.535l1.032 1.091-.515.779-4.077-3.028.514-.779 1.419.788 3.028-4.078-5.281-3.86-3.028 4.078 1.031 1.091-.514.779-3.983-3.002.515-.779 1.349.667 6.887-9.359-1.057-.996.514-.779 4.078 3.028-.514.779-1.324-.762-3.199 4.337 5.281 3.86 3.199-4.338-1.222-1.142.515-.779 4.172 3.053-.514.779-1.323-.762zM189.182 610.077l-1.576-1.339 4.585-12.929-.772-.92.583-.659 3.863 3.072-.61.754-1.298-.857-1.023 2.679 4.261 3.485 2.461-1.582-1.127-1.116.584-.659 3.438 2.755-.584.658-1.064-.59zm1.005-2.99-.623 1.565 1.402-1.05 5.214-3.493-3.672-3.021zM178.079 599.056l1.31 1.573-.584.658-3.665-3.426 3.761-7.956 1.182-2.128-2.005 1.398-7.591 4.383-3.596-3.306.584-.658 1.697 1.269 6.818-9.479-1.076-1.307.584-.658 3.9 3.693-.584.658-1.368-.977-5.053 6.693-2.196 2.874 2.41-1.391 8.986-5.028.893.85-3.845 8.647-1.607 3.338 2.69-2.437 6.3-5.646-1.266-1.357.584-.659 3.596 3.306-.584.659-1.273-.952z"/><path d="m161.751 585.106-1.43-1.504 6.124-12.211-.652-.99.679-.633 3.424 3.566-.678.633-1.273-.952-1.404 2.578 3.849 3.883 2.6-1.34-.981-1.282.679-.633 3.12 3.179-.678.633-.944-.66zm1.385-2.888-.813 1.514 1.541-.81 5.657-2.864-3.355-3.445zM155.544 576.72l.791 1.231-.679.633-1.639-1.865c-.33-.292-.633-.679-.962-.971-.494-.438-.963-.971-1.361-1.384q-1.757-1.998-1.802-3.538c-.031-1.027.509-1.901 1.48-2.863.774-.607 1.522-1.12 2.359-1.201.862-.177 1.743-.043 2.572.282.83.324 1.584.933 2.286 1.733l.703.799c.234.266.373.507.468.533l3.077-2.741-1.588-2.055.679-.633 4.076 4.555-.679.633-1.152-1.021zm2.341-7.215c-.633-.679-1.437-1.099-2.223-1.207s-1.819.327-2.79 1.289q-1.2 1.054-1.182 2.128c.012.717.404 1.535 1.107 2.334.234.266.563.558.892.85.165.146.329.292.399.413l4.942-4.38c-.234-.266-.607-.774-1.145-1.427M155.844 558.874c.195 1.173.01 2.244-.58 3.308-.496 1.089-1.372 2.077-2.438 3.013-1.066.937-2.22 1.443-3.392 1.638-1.173.195-2.39.174-3.479-.321-1.115-.401-2.059-1.061-2.9-2.101a18 18 0 0 1-1.86-2.943l-.253-.577 2.683-2.031.772.919-1.51 1.836c.044.216.063.527.246.983.209.362.487.844.86 1.351a3.55 3.55 0 0 0 1.913 1.226c.76.203 1.597.122 2.484-.15.888-.271 1.852-.828 2.772-1.6s1.624-1.5 2.164-2.374c.539-.874.864-1.704.877-2.515s-.283-1.603-.796-2.352c-.373-.507-.797-.825-1.126-1.117s-.615-.368-.925-.349l-1.896.612-.651-.989 2.289-1.322c.165.146.494.438.918.755.424.318.779.514 1.108.806s.633.679 1.127 1.117q1.443 1.456 1.593 3.177M125.37 540.319l.748-.512 1.146 1.427 7.82-5.238-2.744-.022-8.434-.834-.387.303.714 1.516-.748.512-2.815-4.319.748-.512 1.032 1.091 9.679-6.472-.74-1.42.748-.513 2.911 4.345-.749.512-1.076-1.307-7.941 5.308 2.554-.028 8.625.885.602-.348-.809-1.541.748-.513 2.91 4.345-.748.512-1.006-1.186-9.679 6.472.645 1.395-.749.512zM118.747 529.683c-.399-.412-.702-.799-1.032-1.091-.329-.292-.442-.628-.677-.895-.765-1.325-1.176-2.454-1.206-3.48-.03-1.027.458-1.711 1.422-2.268.844-.487 1.706-.663 2.561-.434.856.229 1.539.718 2.172 1.397-.556-.964-.802-1.947-.573-2.802q.344-1.283 1.466-2.052c1.11-.721 2.283-.916 3.303-.541 1.02.376 2.008 1.251 3.007 2.843.348.603.696 1.205.853 1.757s.341 1.008.455 1.344q.171.504.132.646l-2.91 1.36-.487-.844 1.77-1.665q-.018-1.074-.891-2.377c-.417-.723-1.006-1.187-1.602-1.244-.595-.058-1.457.118-2.301.605-.628.443-1.066.937-1.339 1.577-.178.665-.002 1.527.58 2.396l.721 1.11-.869.582-.556-.964c-.278-.482-.608-.774-1.032-1.091-.424-.318-.899-.445-1.4-.477q-.751-.05-1.655.473c-.723.418-1.065.937-1.218 1.507-.058.596.074 1.242.492 1.965.278.482.582.869.936 1.066.33.292.615.368.83.324l1.68-.568.652.989-2.366 1.607c-.19-.051-.424-.317-.918-.755M111.4 515.288l.524 1.464-.818.392-1.226-2.264c-.209-.361-.487-.843-.861-1.351a11 11 0 0 1-.721-1.11c-.809-1.541-1.099-2.739-1.06-3.645.134-.881.623-1.565 1.587-2.121.818-.392 1.585-.594 2.345-.39.786.108 1.47.597 2.008 1.251-.532-1.059-.777-2.042-.548-2.897.229-.856.718-1.539 1.656-2.001 1.085-.626 2.232-.726 3.321-.231 1.115.401 2.147 1.492 3.165 3.395.209.361.392.818.601 1.179.392.818.645 1.395.809 1.541l1.157 2.144-.818.392-.885-1.256zm2.998-5.105-.462-.938c-.417-.723-.886-1.256-1.551-1.434-.665-.179-1.312-.046-2.13.346-.723.417-1.256.885-1.409 1.456-.152.57.05 1.337.511 2.275l.696 1.205.209.362 4.623-2.428zm5.651-3.986c-.626-1.084-1.259-1.763-1.994-2.062s-1.476-.192-2.32.295-1.376.956-1.459 1.646c-.084.691.023 1.433.58 2.397.626 1.084.948 1.782 1.157 2.143l4.89-2.662c-.14-.241-.392-.818-.854-1.757M102.899 501.398l-.923-1.877 9.613-9.647-.316-1.103.818-.392 2.169 4.452-.818.392-.86-1.351-2.158 1.968 2.352 4.908 2.872-.453-.499-1.559.818-.392 1.89 3.969-.818.392-.652-.989zm2.164-2.374-1.332 1.171 1.724-.353 6.243-.873-2.098-4.331zM110.276 485.652c-.185 1.071-.681 2.16-1.411 2.983s-1.865 1.639-3.139 2.215a7.3 7.3 0 0 1-3.734.629 6.8 6.8 0 0 1-3.25-1.176c-.943-.661-1.69-1.675-2.196-2.83q-.55-1.37-.946-3.309l-.133-.647 3.17-1.187.506 1.154-2.004 1.398c-.051.19-.058.596.03 1.027s.246.982.5 1.559c.322.698.764 1.326 1.474 1.72s1.469.597 2.401.541a9.3 9.3 0 0 0 3.163-.782c1.034-.436 1.998-.992 2.797-1.695.8-.702 1.289-1.386 1.518-2.242.324-.829.243-1.666-.149-2.484-.253-.577-.531-1.059-.766-1.326-.234-.266-.468-.533-.848-.634l-2.028-.035-.316-1.103 2.612-.624c.139.241.348.603.652.989.303.387.633.679.841 1.041.209.361.487.843.74 1.42.506 1.154.701 2.327.516 3.398M94.085 473.47a6.25 6.25 0 0 1-2.819-1.264c-.753-.609-1.335-1.478-1.676-2.486-.41-1.129-.536-2.181-.256-3.227s.725-1.944 1.524-2.647c.825-.797 1.789-1.354 3.038-1.834 1.465-.524 2.732-.694 3.95-.674 1.19.116 2.305.517 3.154 1.151.848.635 1.526 1.53 1.962 2.563.41 1.129.51 2.276.325 3.347s-.725 1.944-1.55 2.742c-.824.798-1.814 1.449-3.063 1.929l1.074 2.835 5.091-1.896-.378-1.629.888-.271 1.756 4.85-.888.272-.74-1.421-10.854 4.018.308 1.508-.887.272-1.782-4.755.888-.272.74 1.421 4.755-1.782-1.074-2.834c-1.198.29-2.44.365-3.486.084m-1.138-1.832c1.235.331 2.813.142 4.76-.66 1.706-.664 2.936-1.454 3.717-2.467q1.17-1.52.555-3.213c-.411-1.129-1.259-1.763-2.4-2.069-1.14-.305-2.744-.022-4.665.685q-2.559.995-3.691 2.373c-.78 1.013-.94 1.988-.53 3.117.29 1.198 1.113 1.928 2.254 2.234M92.291 452.415a30 30 0 0 1 2-2.52c.584-.658 1.021-1.152 1.339-1.576.292-.33.368-.615.419-.805l-.012-.716.888-.271.726 2.231c.14.241-.083.691-.4 1.115q-.515.78-1.752 1.976c-.876.987-1.58 1.715-2.044 2.304s-.59 1.064-.477 1.4l.316 1.103 5.11-1.584-.258-1.699.888-.272 1.54 4.895-.887.271-.645-1.395-11.108 3.441.214 1.483-.888.272-1.47-4.774.887-.272.645 1.395 5.11-1.584-.499-1.56-6.29-1.991.282 1.603-.887.272-1.358-4.438.888-.271.67 1.3 6.43 2.232c-.113-.336.16-.976.623-1.565M95.28 443.539a5.54 5.54 0 0 1-1.904 2.546c-.894.677-2.074 1.278-3.392 1.637-1.414.334-2.656.409-3.822.198s-2.135-.775-2.958-1.505q-1.235-1.095-1.67-2.892c-.517-1.87-.3-3.442.678-4.809.952-1.273 2.424-2.203 4.51-2.765 1.413-.334 2.75-.383 3.916-.172 1.166.21 2.23.801 3.053 1.531q1.235 1.093 1.67 2.892c.29 1.198.295 2.32-.08 3.339m-10.655 2.136c1.21.426 2.763.333 4.728-.159 1.845-.422 3.17-1.188 4.02-2.08s1.156-2.033.84-3.136c-.29-1.198-1.112-1.928-2.322-2.354s-2.858-.359-4.824.133c-1.844.423-3.17 1.188-4.02 2.081q-1.275 1.338-.84 3.136c.505 1.154 1.303 1.979 2.418 2.379M80.43 433.958l.094 1.553-.862.177-.555-2.492c-.088-.431-.246-.982-.404-1.534s-.34-1.008-.36-1.319c-.352-1.724-.332-2.941-.008-3.771.325-.829 1.073-1.342 2.056-1.588a4.03 4.03 0 0 1 2.382.231c.71.394 1.273.952 1.665 1.77-.29-1.198-.251-2.104.168-2.908.42-.805 1.168-1.317 2.125-1.468 1.198-.29 2.364-.08 3.282.676.944.66 1.683 2.08 2.08 4.02.089.431.177.862.17 1.268.15.957.309 1.508.353 1.724l.58 2.396-.862.177-.524-1.465zm4.245-4.057-.246-.983c-.176-.862-.524-1.464-1.138-1.833-.52-.342-1.305-.451-2.193-.18-.862.177-1.465.525-1.712 1.069-.248.545-.357 1.331-.136 2.408.088.432.176.863.36 1.319l.113.336 5.078-1.084c.05-.19-.063-.526-.126-1.052m6.436-2.35c-.29-1.198-.682-2.016-1.366-2.505q-.884-.695-2.357-.326c-.958.151-1.586.594-1.833 1.139-.343.519-.382 1.425-.162 2.503.29 1.198.467 2.06.58 2.396l5.414-1.198c.077-.285-.056-.931-.276-2.009M73.969 405.235l.957-.151.499 1.559 11.486-1.811-.043-1.743.958-.151.843 5.217-.958.151-.403-1.534-11.486 1.811.95 5.959 11.58-1.786-.042-1.743.957-.151.748 5.191-.957.151-.43-1.439-11.485 1.811-.027 1.623-.957.151zM86.6 399.147c-.444.899-1.269 1.697-2.233 2.253-.964.557-2.187.942-3.645 1.061q-2.186.177-3.86-.423c-1.114-.401-2.058-1.061-2.735-1.956-.677-.894-1.113-1.928-1.213-3.075-.207-1.889.226-3.504 1.343-4.631s2.727-1.816 4.926-2.041q2.187-.179 3.86.423a6.5 6.5 0 0 1 2.83 1.981c.677.894 1.113 1.928 1.213 3.075.144 1.363-.04 2.433-.485 3.333m-10.844.557c1.16.616 2.661.713 4.74.557 1.89-.207 3.233-.661 4.273-1.503 1.015-.747 1.486-1.741 1.316-3.009-.1-1.147-.777-2.041-1.936-2.658-1.16-.616-2.756-.738-4.74-.557-1.889.207-3.328.636-4.273 1.504-1.015.746-1.39 1.766-1.22 3.034.074 1.242.75 2.137 1.84 2.632M80.693 384.322c1.692.148 3.048.41 3.947.854.45.223.779.515 1.013.781.209.362.322.698.41 1.129.038.621.031 1.027-.045 1.312l-1.484.213c-.018-.31-.011-.716-.023-1.432-.044-.216-.088-.431-.253-.577s-.33-.292-.589-.463c-1.513-.813-4.587-1.128-9.15-.823l-1.458.119-.06 2.123-.931.056-.678-10.775.931-.056.353 1.725 11.612-.76.078-1.812.932-.056.405 5.711-.932.056-.302-1.915-11.586.664.198 3.822 1.648-.067c2.339.015 4.272.024 5.964.171M72.524 373.374l-.217 1.571-.932.056-.198-9.525 2.941-.333.03 1.027-1.774.543-.031 4.677 5.228-.127-.091-3.08-1.572-.217-.03-1.027 4.297-.071.03 1.027-1.603.283-.03 3.15 5.54-.146-.317-5.279-2.395-.948.306-1.14 3.238.46.184 10.337-.932.056-.188-1.578zM72.308 357.834l.066 3.175 3.878.734-.02 1.216-4.982-.418.268-11.641 5.013-.083-.02 1.217-3.924.578-.15 3.219 11.763.198.212-2.693.906.039-.167 7.085-.906-.039-.15-2.484zM79.734 343.425l-.04.906c.21.361.539.653 1.153 1.022q.78.513 2.128 1.181c.9.445 1.514.813 1.964 1.035.45.223.684.489.633.679l-.162 2.503-.906-.039-.107-.741c-.044-.216-.209-.362-.443-.628-.354-.197-.779-.515-1.463-1.004-.804-.419-1.393-.882-1.912-1.225a3.2 3.2 0 0 1-1.032-1.091c-.324.83-.787 1.418-1.536 1.931-.723.417-1.49.619-2.491.555-1.502-.097-2.497-.567-3.053-1.531-.557-.964-.726-2.232-.604-3.829.007-.406.109-.786.166-1.381.058-.596.186-1.071.167-1.382l.212-2.693.906.039.094 1.553 11.61.768.268-1.762.906.04-.355 5.506-.907-.039-.016-1.838-5.007-.322zm-6.773-1.713a6 6 0 0 0-.192 1.476c-.064 1.001.043 1.743.51 2.276.47.533 1.109.806 2.205.896 1.002.065 1.769-.137 2.397-.58s.831-1.203.99-2.179c.066-1.001.123-1.597.035-2.028l-5.697-.406zM73.906 330.964l-.245 3.194 3.801 1.019-.115 1.191-4.974-.823 1.268-11.578 5.007.323-.116 1.191-3.917.173-.46 3.238 11.673 1.294.497-2.616.88.134-.787 7.122-.881-.134.04-2.433zM88.03 317.026a6.05 6.05 0 0 1-2.822 1.79c-1.104.315-2.44.365-3.797.103-1.356-.261-2.566-.687-3.484-1.443-.918-.755-1.69-1.675-2.1-2.803-.411-1.129-.511-2.276-.275-3.537.16-.976.465-2.116.986-3.301l.248-.545 3.282.676-.236 1.261-2.459.054c-.146.165-.317.424-.54.874-.197.355-.35.925-.407 1.521a3.9 3.9 0 0 0 .32 2.224c.323.698.886 1.256 1.76 1.796.779.514 1.824.794 3.085 1.03 1.166.211 2.193.181 3.245.055.957-.151 1.87-.517 2.524-1.055s1.047-1.248 1.207-2.223q.124-1.037.096-1.502t-.34-1.008l-1.653-1.054.305-1.141 2.515.878c-.076.285.037.621.1 1.147.088.431.056.932.144 1.363s-.039.906-.122 1.597c-.331 1.235-.827 2.325-1.582 3.243M77.796 299.718l.881.134-.173 1.787 9.155 1.944-1.924-1.941-5.354-6.63-.475-.127-.528 1.59-.88-.134 1.039-5.018.88.134-.097 1.502 11.367 2.435.503-1.496.855.23-1.064 5.113-.856-.229.148-1.692-9.346-1.995 1.855 1.821 5.423 6.75.666.178.553-1.685.88.134-1.064 5.113-.88-.134.122-1.597-11.367-2.435-.477 1.4-.88-.134zM82.377 279.963l4.802 1.083-.33 1.235-3.765-.397-1.164 3.966 11.455 2.866 1.03-3.086.855.23-1.789 7.058-.855-.23.344-2.046-11.264-2.815-.7 1.85-.855-.229zM84.357 277.132l-.667 1.35-.855-.23 1.514-4.89.856.229-.218 1.571 4.796 1.489 1.896-6.316-4.796-1.489-.667 1.349-.855-.229 1.489-4.796.855.229-.192 1.477 11.112 3.385.572-1.375.856.229-1.49 4.796-.854-.229.312-1.546-5.176-1.591-1.896 6.316 5.176 1.591.597-1.47.856.23-1.515 4.891-.855-.23.287-1.451zM88.892 258.689l.725-1.945 13.651-.009.591-1.064.829.325-1.653 4.649-.83-.324.313-1.546-2.935-.073-1.78 5.125 2.286 1.733.692-1.444.83.324-1.431 4.2-.83-.324.21-1.166zm3.27-.04-1.692-.148 1.463 1.003 4.996 3.783 1.602-4.46zM101.787 249.718c1.488.908 2.596 1.714 3.204 2.488.304.387.487.843.601 1.179.088.432-.014.812-.116 1.192a8.5 8.5 0 0 1-.616 1.159l-1.4-.477c.171-.26.299-.735.546-1.28.051-.19.128-.475.058-.595-.044-.216-.183-.457-.322-.698-1.051-1.402-3.672-3.021-7.917-4.668l-1.374-.572-1.01 1.869-.83-.324 4.011-10.028.83.324-.458 1.711 10.762 4.31.839-1.609.829.324-2.142 5.334-.83-.324.51-1.901-10.763-4.31-1.443 3.484 1.565.623c2.154 1.086 3.978 1.881 5.466 2.789M104.797 233.922c.667-1.35 1.423-2.268 2.456-2.704 1.034-.436 2.035-.371 3.219.15 1.254.642 2.147 1.492 2.437 2.69.316 1.103.175 2.39-.492 3.739-.051.19-.197.354-.248.544-.146.165-.197.355-.368.615-.369.614-.617 1.159-.864 1.703l-1.017 2.274-.804-.419.502-1.495-10.584-4.975-.857 1.298-.805-.419 2.205-4.808.805.42-.58 1.78 3.883 1.855zm.003-12.935.804.419-.553 1.685 10.489 4.949.908-1.488.805.419-2.351 4.973-.805-.42.554-1.685-10.489-4.949-.908 1.488-.805-.419zm6.171 17.644c.146-.164.248-.544.444-.899.445-.899.484-1.806.187-2.598-.297-.793-.955-1.377-1.949-1.847-.9-.444-1.806-.484-2.478-.256-.698.322-1.256.886-1.701 1.785l-.769 1.729 5.707 2.65c.241-.139.413-.399.559-.564M109.86 213.888l-.927 1.178-.804-.419 2.508-4.421.805.419-.598 1.47 4.446 2.413 3.176-5.769-4.446-2.414-.927 1.178-.804-.419 2.388-4.352.804.42-.477 1.4 10.191 5.684.926-1.178.805.42-2.414 4.446-.804-.419.597-1.47-4.801-2.611-3.175 5.77 4.8 2.611.978-1.368.805.419-2.535 4.516-.804-.419.572-1.375zM118.284 196.894l1.079-1.747 13.363 2.969.755-.918.779.514-2.648 4.18-.779-.515.693-1.444-2.851-.764-2.871 4.63 1.848 2.226 1.048-1.247.778.514-2.33 3.756-.779-.514.496-1.09zm3.092.625-1.616-.433 1.196 1.238 4.12 4.77 2.502-4.015zM127.849 184.383l-1.339 1.576-.779-.514 2.908-4.008 8.33 2.741 2.3.922-1.639-1.865-5.347-7.035 2.907-4.008.779.514-.984 1.773 10.336 5.52 1.142-1.222.779.514-3.225 4.433-.778-.514.813-1.514-7.328-4.204-3.192-1.772 1.753 2.201 6.137 8.265-.685 1.039-9.047-2.73-3.561-1.158 2.729 2.361 6.376 5.477 1.193-1.412.779.515-2.787 3.938-.779-.514.787-1.419z"/><path d="m139.557 166.538 1.244-1.602 12.955 4.49.825-.798.754.609-3.072 3.863-.754-.61.857-1.298-2.679-1.024-3.39 4.287 1.607 2.366 1.117-1.127.753.609-2.754 3.438-.754-.609.591-1.064zm3.016.909-1.565-.622 1.051 1.401 3.492 5.214 2.926-3.698zM147.101 159.29l-1.16.911-.754-.609 1.631-1.906c.292-.329.584-.658.781-1.013.438-.494.781-1.013 1.218-1.507 1.168-1.316 2.304-2.133 3.261-2.284s1.977.225 2.964 1.1q1.13.915 1.538 2.246c.271.887.258 1.698.028 2.554-.229.855-.673 1.755-1.378 2.482-.266.235-.463.589-.73.824q-.399.35-.438.493l3.153 2.679 1.796-1.76.658.584-3.991 4.634-.659-.584.857-1.298zm7.471 1.391c.609-.754.933-1.584.852-2.42-.081-.837-.568-1.68-1.626-2.677-.823-.73-1.557-1.028-2.299-.921s-1.37.549-2.22 1.442c-.292.329-.489.684-.781 1.013-.171.26-.292.329-.317.424l5.058 4.31c.336-.114.749-.513 1.333-1.171M164.938 157.346c-1.103.316-2.2.226-3.34-.08a9 9 0 0 1-3.236-1.987c-.962-.971-1.709-1.986-2.094-3.209-.411-1.129-.39-2.346-.18-3.512.306-1.14.801-2.23 1.747-3.097.704-.728 1.504-1.43 2.734-2.221l.507-.373 2.298 2.449-.85.892-2.103-1.276a3.2 3.2 0 0 0-.913.367c-.361.208-.774.607-1.186 1.006-.559.563-.857 1.298-.941 1.989-.108.785.094 1.552.46 2.466.392.818 1.069 1.712 1.962 2.562.797.825 1.766 1.39 2.666 1.835s1.78.579 2.616.498c.837-.082 1.56-.499 2.239-1.132.438-.494.755-.918.927-1.178.171-.26.273-.64.254-.95l-.828-1.852.92-.772 1.658 2.176q-.219.246-.591 1.064c-.222.45-.419.804-.616 1.159q-.295.532-.952 1.273c-1.066.936-2.15 1.562-3.158 1.903M176.007 127.82l.633.679-1.193 1.412 6.278 6.979-.383-2.751-.383-8.455-.304-.387-1.376.956-.633-.679 3.876-3.443.633.678-.926 1.178 7.753 8.698 1.256-.885.633.678-3.877 3.443-.633-.678 1.143-1.222-6.349-7.1.435 2.561.332 8.645.468.533 1.402-1.05.633.679-3.902 3.538-.633-.679 1.022-1.152-7.754-8.699-1.23.791-.633-.679zM185.688 119.821c.317-.424.634-.848.926-1.177s.559-.564.825-.798c1.187-1.006 2.341-1.512 3.298-1.663s1.761.268 2.464 1.068c.607.774.904 1.566.77 2.447a4.7 4.7 0 0 1-1.042 2.369c.894-.677 1.807-1.043 2.688-.909.906.039 1.616.433 2.223 1.207.842 1.04 1.157 2.143.972 3.214q-.278 1.606-2.418 3.324c-.533.469-1.136.816-1.618 1.095a7.2 7.2 0 0 1-1.274.575c-.336.114-.552.158-.577.253l-1.816-2.728.774-.607 1.931 1.536c.647-.132 1.465-.524 2.264-1.227.654-.538 1.022-1.152.985-1.773-.012-.716-.24-1.389-.942-2.188-.443-.628-1.057-.996-1.748-1.079q-1.036-.126-2.378.89l-1.04.842-.703-.799.8-.703c.387-.304.704-.728.927-1.178.222-.449.349-.924.287-1.451-.063-.526-.342-1.008-.715-1.515-.538-.653-1.057-.996-1.678-.959s-1.198.29-1.826.733c-.413.399-.705.728-.997 1.057a.92.92 0 0 0-.229.855l.81 1.541-.92.773-1.969-2.158c.241-.139.533-.468.946-.867M198.875 110.521l-1.421.74-.512-.749 2.029-1.493c.362-.209.774-.608 1.282-.981.412-.399.799-.702 1.04-.842q2.103-1.575 3.462-1.517c.907.04 1.711.459 2.318 1.233a3.86 3.86 0 0 1 .701 2.327c-.013.811-.407 1.52-.991 2.178.92-.772 1.902-1.018 2.809-.978.906.039 1.685.553 2.197 1.301.747 1.015.967 2.093.757 3.259-.211 1.166-1.232 2.318-2.901 3.602a9 9 0 0 1-1.11.722c-.843.487-1.256.885-1.471.929l-2.03 1.494-.512-.749 1.091-1.032zm5.403 2.262.869-.582c.748-.512 1.117-1.126 1.174-1.722.058-.596-.144-1.363-.656-2.111-.513-.749-1.032-1.092-1.628-1.149-.595-.058-1.388.239-2.162.846-.387.304-.748.513-1.04.842l-.267.234 3.056 4.18c-.095-.025.267-.234.654-.538m4.785 4.949c1.015-.746 1.624-1.5 1.733-2.285q.164-1.179-.606-2.302c-.607-.774-1.196-1.237-1.792-1.295-.69-.083-1.388.24-2.282.917-1.015.746-1.643 1.189-1.91 1.423l3.265 4.542c.216-.044.723-.418 1.592-1M211.436 100.136l1.738-1.164 10.935 8.226 1.059-.531.512.748-4.104 2.771-.512-.748 1.186-1.006-2.26-1.828-4.586 3.049.789 2.758 1.421-.74.512.748-3.717 2.468-.512-.749.825-.797zm2.666 1.834-1.343-1.072.569 1.68 1.735 6.067 3.958-2.606zM228.009 105.187c-1.122.005-2.142-.37-3.206-.96q-1.415-.991-2.601-2.836c-.696-1.205-1.081-2.429-1.181-3.576s.231-2.383.796-3.352c.591-1.064 1.416-1.861 2.526-2.583.843-.487 1.877-.923 3.221-1.377l.577-.253 1.549 2.961-1.085.627-1.664-1.77c-.19-.052-.526.062-.957.15s-.913.367-1.395.645a3.4 3.4 0 0 0-1.46 1.646c-.299.735-.408 1.52-.257 2.478.151.957.587 1.99 1.239 2.98.652.989 1.329 1.884 2.082 2.493q1.13.914 2.413 1.258c.856.229 1.623.027 2.466-.46q.905-.521 1.161-.911c.266-.234.463-.589.54-.874l-.277-2.01 1.059-.53.961 2.498c-.241.139-.508.373-.825.797-.292.329-.584.659-.971.962-.292.33-.774.608-1.256.886a5.84 5.84 0 0 1-3.455 1.111M237.758 87.429c.09-1.097.37-2.142.91-3.016s1.219-1.507 2.183-2.063c1.084-.626 2.162-.847 3.163-.782a4.74 4.74 0 0 1 2.844 1.17q1.235 1.094 2.316 2.759c.766 1.325 1.125 2.644 1.2 3.886s-.111 2.313-.676 3.282c-.565.97-1.269 1.697-2.233 2.254-1.085.626-2.162.846-3.259.756a5.43 5.43 0 0 1-2.869-1.074 8.1 8.1 0 0 1-2.317-2.76l-2.625 1.436 2.593 4.769 1.49-.62.392.818-4.528 2.454-.392-.818 1.256-.886-5.508-10.235-1.465.524-.487-.844 4.408-2.384.487.844-1.256.886 2.384 4.407 2.72-1.41c-.531-1.059-.751-2.136-.731-3.353m1.764-1.26c-.141 1.287.262 2.821 1.306 4.629.904 1.566 1.815 2.727 2.975 3.343 1.159.616 2.16.68 3.339.08 1.059-.53 1.625-1.5 1.645-2.717s-.383-2.75-1.332-4.533c-.904-1.566-1.815-2.727-2.879-3.318-1.064-.59-2.161-.68-3.22-.15-1.059.532-1.694 1.38-1.834 2.667M258.481 82.694c.71.394 1.584.933 2.743 1.55.779.514 1.298.857 1.748 1.08.449.222.639.272.855.228l.742-.107.392.819-2.093.967c-.241.139-.621.037-1.166-.21-.545-.249-1.228-.737-2.172-1.398a25 25 0 0 0-2.501-1.689c-.615-.368-1.115-.4-1.451-.287l-1.059.532 2.282 4.787 1.559-.499.392.818-4.667 2.213-.392-.818 1.326-.765-4.931-10.489-1.439.43-.392-.818 4.547-2.143.391.818-1.35.86 2.256 4.883 1.421-.74 1.136-6.52-1.56.499-.392-.819 4.185-1.934.392.818-1.23.791-1.377 6.66c.405.006 1.071.184 1.805.483M267.688 84.448c-1.071-.185-1.945-.725-2.742-1.55a9.7 9.7 0 0 1-2.094-3.21c-.55-1.369-.84-2.567-.725-3.758.116-1.192.396-2.237 1.056-3.18s1.555-1.62 2.588-2.057c1.826-.733 3.354-.731 4.798-.039 1.444.693 2.589 2.12 3.392 4.067.55 1.37.814 2.663.699 3.854-.116 1.191-.421 2.332-1.081 3.275-.661.944-1.555 1.62-2.589 2.057-1.179.6-2.231.726-3.302.54m-3.6-10.132c-.236 1.261.072 2.77.78 4.69.758 1.732 1.644 2.988 2.683 3.674 1.013.78 2.109.87 3.263.365 1.129-.41 1.789-1.354 2.025-2.615s-.047-2.865-.875-4.717c-.759-1.73-1.645-2.986-2.683-3.672-1.039-.686-2.11-.871-3.264-.365-1.059.53-1.693 1.38-1.929 2.64M275.046 68.39l-1.509.31-.271-.888 2.378-.89c.431-.09.913-.367 1.49-.62s.938-.462 1.249-.48c1.585-.594 2.853-.764 3.708-.535.855.23 1.514.813 1.855 1.822.297.792.378 1.629.079 2.364s-.787 1.418-1.51 1.836c1.128-.411 2.06-.467 2.915-.238.856.23 1.489.908 1.83 1.916.41 1.129.39 2.346-.176 3.315q-.885 1.596-3.767 2.657a6.6 6.6 0 0 1-1.224.385c-.887.272-1.464.525-1.68.569l-2.378.89-.297-.792 1.421-.74zm4.616 3.682 1.008-.341q1.189-.445 1.599-1.405c.273-.64.261-1.356-.131-2.174-.297-.793-.765-1.325-1.31-1.573s-1.381-.167-2.389.174c-.457.184-.818.392-1.275.576l-.361.208 1.851 4.876q.18-.104 1.008-.341m3.168 6.044c1.128-.411 1.902-1.019 2.296-1.728s.382-1.425.041-2.433c-.367-.913-.835-1.446-1.38-1.694q-.959-.41-2.51.244c-1.223.385-1.921.708-2.257.821l1.965 5.212c.26.171.932-.056 1.845-.422M302.57 58.043l.272.887-1.421.74 3.346 11.082 1.724-.353.271.888-4.989 1.515-.272-.888 1.395-.644-3.415-11.203-5.756 1.717 3.415 11.203 1.724-.353.272.887-4.99 1.516-.271-.888 1.395-.645-3.346-11.082-1.604.283-.271-.887zM310.37 69.605a5.54 5.54 0 0 1-2.545-1.904q-1.016-1.341-1.517-3.462c-.334-1.414-.409-2.656-.173-3.917.211-1.166.776-2.135 1.506-2.958q1.095-1.235 2.892-1.67c1.87-.517 3.442-.3 4.809.678 1.273.952 2.203 2.424 2.739 4.604.334 1.414.383 2.751.173 3.917a5.47 5.47 0 0 1-1.626 3.028 6.8 6.8 0 0 1-2.892 1.67c-1.319.359-2.346.39-3.366.014m-2.135-10.656c-.426 1.21-.333 2.763.159 4.728.422 1.845 1.188 3.17 2.08 4.02.893.851 2.033 1.157 3.136.841 1.198-.29 1.903-1.018 2.354-2.323.426-1.21.359-2.858-.133-4.823-.423-1.845-1.188-3.17-2.081-4.02q-1.338-1.275-3.136-.84c-1.154.505-1.979 1.302-2.379 2.417M324.297 61.726c.138 1.768-.003 3.054-.378 4.074-.128.475-.445.9-.712 1.134a2.3 2.3 0 0 1-1.059.53c-.551.159-1.052.126-1.267.17l-.43-1.439c.311-.018.742-.107 1.389-.239.215-.044.431-.088.577-.253.146-.164.292-.329.368-.614.648-1.66.437-4.67-.49-9.196l-.334-1.414-2.199.225-.177-.862 10.561-2.161.177.862-1.68.569 2.337 11.423 1.889-.207.176.862-5.603 1.147-.177-.862 1.896-.613-2.338-11.423-3.664.75.379 1.629c.32 2.225.597 4.234.759 5.907M333.91 52.078l-1.527-.001-.151-.957 9.382-1.561.763 2.853-1.052.125-.854-1.756-4.545.615.843 5.217 3.113-.592.002-1.527 1.052-.126.692 4.26-1.052.126-.499-1.56-3.087.497.862 5.527 5.172-1.058.567-2.496 1.166.21.041 3.27-10.218 1.642-.177-.862 1.534-.404zM349.32 49.689l-3.182.471-.138 3.936-1.268.17-.298-4.97 11.574-1.38.825 4.906-1.148.1-1.104-3.86-3.226.255 1.45 11.695 2.674-.098.056.931-7.055.86-.055-.932 2.37-.485zM364.6 55.005l-.932.056c-.266.234-.584.658-.832 1.203a16.6 16.6 0 0 0-.826 2.325c-.35.925-.528 1.59-.75 2.04-.223.45-.394.71-.61.753l-2.51.245-.056-.932.672-.227c.216-.045.362-.21.559-.564q.295-.533.743-1.634c.324-.83.718-1.54.966-2.084.343-.52.66-.944 1.022-1.152q-1.321-.201-2.128-1.182t-.891-2.377c-.119-1.458.282-2.573 1.056-3.18.894-.678 2.118-1.063 3.766-1.13.31-.02.836-.082 1.432-.024.621-.037 1.027-.03 1.337-.05l2.7-.192.056.931-1.508.309.905 11.447 1.717.053.056.931-5.52.456-.056-.931 1.819-.328-.393-4.994zm.762-7.027c-.595-.058-1.026.03-1.527-.002-.932.056-1.724.353-2.137.751q-.798.703-.611 2.281c.031 1.027.448 1.75.917 2.283q.883.695 2.28.611c1.027-.03 1.674-.163 1.984-.181l-.405-5.711zM376.086 47.49l-3.226.256-.543 3.928-1.242.075.132-5.057 11.63-.45.394 4.995-1.122.005-.794-3.88-3.27.041.398 11.82 2.623.092.056.932-7.092.239-.056-.932 2.415-.27zM391.922 59.474a6.56 6.56 0 0 1-2.177-2.518c-.531-1.06-.7-2.327-.724-3.76q.107-2.11.993-3.706.886-1.595 2.474-2.393c1.06-.53 2.163-.846 3.474-.8.907.039 2.098.154 3.429.51l.57.154-.296 3.384-1.217-.02-.39-2.346c-.164-.146-.424-.318-.899-.445s-.976-.16-1.572-.217a3.4 3.4 0 0 0-2.111.656c-.628.443-1.117 1.127-1.536 1.931a9.4 9.4 0 0 0-.65 3.188q-.031 1.825.376 3.156c.272.888.759 1.731 1.417 2.315.659.584 1.393.883 2.3.922.716-.012 1.121-.005 1.552-.093.336-.114.673-.228.939-.462l.794-1.824 1.166.21-.497 2.617c-.311.019-.647.132-1.173.195-.431.088-.888.272-1.293.265-.431.088-.932.056-1.553.093-1.312-.046-2.452-.351-3.396-1.012M407.528 46.85l-.039.905-1.864.112-.683 9.392 1.708-2.19 5.831-6.18.033-.5-1.641-.338.039-.906 5.101.348-.039.906-1.458.119-.768 11.61 1.546.312-.039.906-5.196-.373.039-.907 1.648-.068.613-9.511-1.561 2.026-5.952 6.248-.084.69 1.762.269-.039.906-5.292-.4.039-.906 1.553-.093.768-11.61-1.451-.286.039-.907zM427.806 48.718l-.392 4.886-1.287-.141-.103-3.797-4.119-.594-1.319 11.767 3.212.556-.134.88-7.313-.839.135-.88 2.028.034 1.243-11.483-1.901-.509.134-.88zM430.954 50.274l-1.4-.477.134-.88 4.999.728-.134.88-1.622-.026-.729 4.999 6.451 1.015.728-5-1.495-.502.134-.88 5 .728-.134.88h-1.528l-1.743 11.449 1.425.382-.134.88-5-.728.135-.88 1.527.001.83-5.38-6.45-1.015-.831 5.38 1.616.433-.134.88-5.095-.753.135-.881 1.527.002zM449.774 52.262l2.021.44 1.873 13.539 1.115.4-.134.88-4.828-.987.134-.88 1.597.121-.333-2.94-5.303-1.116-1.404 2.578 1.495.502-.134.88-4.353-.86.134-.88 1.217.02zm.592 3.112-.163-1.673-.718 1.539-3.004 5.51 4.638.937zM460.465 63.682c-.623 1.565-1.36 2.793-2.064 3.521-.413.4-.774.608-1.11.721q-.504.17-1.217-.02c-.57-.153-1.045-.28-1.305-.451l.192-1.477 1.33.357c.191.05.406.006.622-.038s.361-.208.628-.443c1.237-1.196 2.501-4.015 3.603-8.507l.382-1.425-1.996-.535.255-.95 10.505 2.61-.255.951-1.787-.173-2.815 11.265 1.755.674-.229.855-5.633-1.407.23-.856 1.951.32 2.815-11.265-3.732-.898-.433 1.615a36.4 36.4 0 0 1-1.692 5.556M476.536 64.525c1.4.477 2.439 1.163 3.021 2.032s.682 2.016.256 3.226q-.716 2.1-2.266 2.754c-1.154.506-2.371.485-3.797.103l-.57-.153c-.19-.05-.38-.102-.64-.273-.639-.273-1.305-.451-1.849-.7l-2.446-.756.229-.856 1.546.313 3.385-11.112-1.349-.668.229-.855 5.081 1.565-.229.856-1.856-.294-1.311 4.13zm-3.836 6.713c.19.051.545.248.925.35 1.045.28 1.856.294 2.579-.124.723-.417 1.212-1.101 1.492-2.146.28-1.046.269-1.762-.149-2.485q-.522-.903-2.051-1.466l-1.806-.484-1.82 6.031c.38.102.64.273.83.324m16.634-8.479-.229.856-1.762-.269-3.385 11.113 1.634.743-.229.855-5.271-1.616.229-.855 1.736.363 3.385-11.112-1.634-.743.229-.856zM497.023 66.755l-1.324-.762.324-.83 4.72 1.774-.324.83-1.546-.312-1.774 4.72 6.189 2.37 1.774-4.719-1.324-.762.324-.83 4.72 1.774-.325.83-1.451-.287-4.145 10.908 1.349.667-.324.83-4.719-1.774.324-.83 1.52.408 1.971-5.074-6.189-2.372-1.971 5.075 1.419.787-.324.83-4.789-1.894.324-.83 1.521.407zM515.015 72.595l1.919.82-1.018 13.681.944.66-.324.83-4.548-2.033.324-.83 1.495.502.384-2.953-5.024-2.16-1.897 2.14 1.419.787-.325.83-4.098-1.811.324-.83 1.141.306zm-.055 3.244.243-1.666-1.073 1.342-4.112 4.704 4.383 1.888zM528.726 80.343l-1.722-1.175.419-.804 4.377 2.293-1.506 8.662-.542 2.401 1.606-1.81 6.167-6.293 4.377 2.293-.419.805-1.945-.725-4.05 10.934 1.367.978-.419.804-4.731-2.49.419-.804 1.565.622 3.115-7.823 1.322-3.414-1.967 2.02-7.234 7.228-1.064-.59 1.495-9.378.657-3.593-1.937 3.046-4.559 7.13 1.558 1.03-.419.804-4.282-2.268.419-.804 1.47.597z"/><path d="m548.096 89.404 1.748 1.08-2.589 13.463.943.661-.419.804-4.231-2.458.419-.804 1.47.597.643-2.78-4.654-2.776-2.158 1.968 1.273.953-.419.804-3.781-2.236.419-.804 1.115.4zm-.435 3.143.433-1.616-1.237 1.196-4.702 4.24 4.136 2.433zM556.365 95.795l-1.057-.996.514-.779 2.077 1.372c.355.197.779.514 1.134.71.614.37 1.159.617 1.678.96 1.463 1.003 2.425 1.974 2.671 2.956.246.983.061 2.054-.625 3.092a4.56 4.56 0 0 1-2.011 1.804c-.818.392-1.655.473-2.535.339s-1.806-.484-2.68-1.023a4.8 4.8 0 0 1-.943-.661c-.355-.196-.52-.342-.589-.463l-2.254 3.47 2.026 1.562-.514.779-5.124-3.308.515-.779 1.444.692zm-.32 7.656c.874.54 1.635.743 2.497.567s1.636-.784 2.372-2.013c.54-.874.769-1.729.542-2.401s-.765-1.326-1.709-1.986c-.355-.197-.709-.393-1.159-.616-.26-.171-.45-.222-.45-.222l-3.625 5.547c.329.292.753.61 1.532 1.124M560.774 113.172a5.86 5.86 0 0 1-.351-3.252c.185-1.07.732-2.35 1.564-3.553.806-1.108 1.751-1.975 2.81-2.506 1.059-.532 2.232-.727 3.423-.611 1.192.115 2.307.516 3.32 1.297.779.514 1.671 1.364 2.538 2.31l.494.438-2.12 2.589-1.038-.686.991-2.179c-.044-.215-.278-.481-.487-.843-.209-.361-.728-.704-1.247-1.047-.684-.489-1.349-.667-2.161-.681-.811-.014-1.603.283-2.352.796-.748.512-1.573 1.31-2.233 2.253s-1.131 1.938-1.481 2.863c-.254.95-.388 1.831-.117 2.719.272.887.714 1.515 1.493 2.03.52.343.944.66 1.324.762s.665.178.976.159l1.712-1.069.893.851-1.942 1.924c-.259-.171-.64-.273-1.089-.496-.475-.127-.83-.324-1.305-.451-.355-.197-.805-.419-1.324-.762-.988-.876-1.855-1.821-2.291-2.855M588.034 117.115l-.609.753-1.558-1.028-5.922 7.275 2.663-.815 8.285-1.65.317-.424-1.101-1.212.61-.754 4.001 3.313-.609.754-1.324-.762-7.407 9.016 1.127 1.116-.584.659-4.001-3.313.584-.659 1.393.883 6.042-7.344-2.447.77-8.501 1.694-.438.494 1.196 1.238-.583.658-4.097-3.339.584-.658 1.298.857 7.407-9.016-1.032-1.091.61-.753zM597.511 125.46c.545.248.874.54 1.229.737s.684.489.944.66c1.152 1.022 1.898 2.037 2.144 3.019q.369 1.474-.687 2.566c-.704.728-1.427 1.146-2.334 1.107-.836.081-1.692-.148-2.471-.663.798.825 1.285 1.669 1.366 2.505.082.837-.242 1.667-.826 2.325-.876.988-1.935 1.519-3.031 1.429-1.122.005-2.281-.611-3.693-1.804-.589-.464-.962-.971-1.336-1.479-.373-.507-.582-.868-.816-1.135l-.348-.602 2.424-2.203.658.584-1.181 2.128c.227.672.765 1.325 1.493 2.03.659.584 1.203.831 1.945.724.647-.132 1.344-.454 1.954-1.208.558-.563.736-1.228.819-1.919.084-.691-.429-1.439-1.252-2.169l-.987-.876.704-.728.823.73c.424.318.848.635 1.324.762.475.128.975.16 1.527.002s.938-.461 1.376-.955c.584-.659.832-1.203.7-1.85-.038-.621-.411-1.129-1.069-1.712-.399-.413-.754-.61-1.203-.832a1.24 1.24 0 0 0-.881-.134l-1.402 1.05-.918-.755 1.828-2.261c.304.387.658.584 1.177.927M608.652 137.103l-.886-1.256.679-.633 1.759 1.796c.33.292.728.704 1.222 1.142l.988.876c1.196 1.237 1.943 2.252 1.999 3.184.176.862-.148 1.692-.852 2.42-.679.633-1.377.955-2.118 1.062-.742.107-1.597-.123-2.376-.637.892.85 1.379 1.694 1.435 2.626s-.243 1.666-.947 2.394c-.85.893-1.979 1.303-3.075 1.213q-1.788-.173-3.971-2.286c-.329-.292-.633-.679-.867-.945q-.95-1.019-1.197-1.238l-1.759-1.795.679-.633 1.272.952zm-5.534 11.148c.893.85 1.672 1.364 2.483 1.378s1.509-.309 2.187-.942c.679-.633.978-1.368.941-1.989q-.056-.931-1.252-2.169-1.339-1.275-1.691-1.675l-3.908 3.944c.044.215.538.653 1.24 1.453m4.221-5.49.728.704c.659.584 1.273.952 1.894.915s1.319-.36 1.903-1.018c.583-.658.926-1.178.889-1.799s-.455-1.344-1.183-2.048c-.329-.292-.658-.584-1.082-.901l-.33-.292-3.642 3.709c.19.051.424.317.823.73M620.953 147.835l1.43 1.503-6.383 12.04.651.99-.679.633-3.304-3.636.679-.633 1.152 1.022 1.499-2.552-3.702-4.048-2.67 1.22.981 1.281-.679.633-3-3.248.679-.633.918.755zm-1.48 2.862.908-1.488-1.541.809-5.701 2.649 3.234 3.515zM618.397 164.975c-.195-1.173-.01-2.243.486-3.333.496-1.089 1.276-2.102 2.437-3.014 1.066-.936 2.22-1.442 3.418-1.732s2.39-.175 3.505.226 2.058 1.061 2.9 2.101a18 18 0 0 1 1.86 2.943l.252.577-2.683 2.031-.772-.92 1.536-1.931c-.044-.215-.063-.526-.271-.887-.209-.362-.487-.844-.886-1.256a3.54 3.54 0 0 0-1.913-1.226c-.76-.203-1.597-.122-2.484.149-.888.272-1.852.828-2.772 1.6s-1.649 1.596-2.164 2.374c-.539.874-.769 1.73-.782 2.541q-.021 1.217.891 2.378c.468.533.797.824 1.152 1.021s.614.369.925.35l1.895-.612.652.989-2.315 1.417c-.165-.146-.494-.438-.918-.755-.45-.223-.779-.515-1.108-.807s-.754-.609-1.127-1.116a5.17 5.17 0 0 1-1.714-3.108M637.421 171.905c1.147-.1 2.123.06 3.048.41.925.349 1.748 1.079 2.355 1.853.747 1.015 1.113 1.928 1.239 2.98.03 1.027-.13 2.003-.695 2.972a8.5 8.5 0 0 1-2.456 2.703 9.6 9.6 0 0 1-3.633 1.777c-1.198.29-2.295.2-3.41-.201s-1.868-1.01-2.545-1.904q-1.12-1.523-1.308-3.101c-.126-1.052.129-2.003.599-2.997a9.9 9.9 0 0 1 2.361-2.729l-1.797-2.416-4.352 3.315.835 1.446-.748.513-3.082-4.085.749-.513 1.126 1.117 9.211-7.005-.765-1.325.774-.608 3.012 3.965-.774.607-1.127-1.116-3.965 3.012 1.797 2.416c1.37-.549 2.473-.865 3.551-1.086m1.62 1.555c-1.242.075-2.732.694-4.4 1.979-1.428 1.145-2.424 2.202-2.85 3.412s-.301 2.262.446 3.277c.772.92 1.671 1.365 2.939 1.195 1.242-.074 2.663-.814 4.306-2.004 1.427-1.145 2.423-2.202 2.85-3.412q.639-1.815-.377-3.157c-.677-.894-1.671-1.364-2.914-1.29M645.37 191.657c-.204.76-.674 1.755-1.195 2.939-.419.805-.598 1.47-.795 1.824-.101.381-.203.761-.134.881l.228.672-.749.513-1.328-1.884c-.14-.241-.133-.647.115-1.191.248-.545.572-1.375 1.042-2.37.616-1.159.966-2.083 1.239-2.723s.211-1.166.097-1.502l-.651-.99-4.371 3.006.715 1.515-.749.513-2.84-4.225.748-.512 1.006 1.186 9.584-6.497-.644-1.395.748-.513 2.771 4.104-.748.513-1.007-1.187-4.465 2.98.86 1.351 6.585.135-.74-1.421.749-.512 2.536 3.837-.748.512-1.032-1.091-6.749-.281c.183.457.125 1.053-.078 1.813M644.997 201.03c.065-1.002.345-2.047 1.1-2.965.661-.944 1.606-1.811 2.811-2.506 1.23-.791 2.454-1.176 3.601-1.276 1.242-.075 2.313.11 3.308.58.994.471 1.817 1.2 2.443 2.285.974 1.687 1.283 3.196.755 4.786q-.753 2.243-3.503 3.95c-1.23.791-2.454 1.176-3.722 1.346-1.242.074-2.313-.111-3.402-.607-.995-.47-1.792-1.295-2.444-2.284-.696-1.205-.916-2.283-.947-3.309m9.538-5.186c-1.216-.02-2.776.479-4.488 1.548-1.592.999-2.684 2.031-3.205 3.215-.616 1.159-.491 2.211.136 3.296.651.989 1.62 1.555 2.837 1.575 1.312.046 2.776-.478 4.489-1.547 1.592-1 2.683-2.031 3.204-3.216.496-1.089.491-2.211-.135-3.296-.652-.989-1.526-1.529-2.838-1.575M662.027 205.898l-.524-1.464.843-.487 1.252 2.169c.209.361.487.843.861 1.351.373.507.582.869.721 1.11.809 1.541 1.22 2.669 1.06 3.645s-.623 1.565-1.492 2.147c-.723.417-1.585.593-2.37.485-.786-.109-1.496-.503-2.103-1.277.626 1.085.803 1.947.643 2.923-.134.881-.718 1.539-1.562 2.026-1.084.626-2.231.726-3.346.326-1.115-.401-2.147-1.492-3.19-3.3-.209-.361-.392-.818-.601-1.179-.487-.844-.74-1.421-.809-1.541l-1.253-2.169.818-.392.886 1.256zm-8.459 9.142c.626 1.084 1.259 1.763 2.019 1.967.761.203 1.502.097 2.346-.39.843-.487 1.307-1.076 1.459-1.646.153-.571-.023-1.433-.58-2.397l-1.182-2.048-4.89 2.662c.088.431.341 1.008.828 1.852m5.582-4.107.462.939c.417.723 1.006 1.186 1.576 1.339.665.178 1.312.046 2.155-.441q1.085-.626 1.314-1.482.23-.855-.606-2.301c-.208-.361-.512-.748-.695-1.205l-.209-.361-4.554 2.548zM676.586 231.393l-.818.392-.861-1.351-10.418 5.051.568 1.68-.818.392-2.282-4.787.818-.392.86 1.351 10.514-5.026-2.63-5.39-10.539 5.121.568 1.68-.818.392-2.307-4.693.818-.392.79 1.231 10.419-5.052-.499-1.559.818-.392zM666.282 240.957c.185-1.071.725-1.945 1.455-2.768a10.9 10.9 0 0 1 3.114-2.119c1.274-.576 2.568-.84 3.759-.725 1.191.116 2.237.396 3.18 1.056s1.621 1.555 2.057 2.588c.733 1.827.826 3.379.038 4.798-.692 1.444-2.119 2.59-4.066 3.392-1.37.55-2.663.814-3.854.699-1.191-.116-2.332-.421-3.275-1.081-.944-.661-1.621-1.555-2.152-2.614-.316-1.103-.511-2.276-.256-3.226m10.157-3.696c-1.261-.236-2.769.073-4.716.876-1.731.758-2.987 1.644-3.673 2.683s-.87 2.109-.365 3.263c.506 1.154 1.354 1.789 2.615 2.025s2.865-.047 4.716-.875c1.732-.759 2.987-1.645 3.673-2.683.686-1.039.776-2.135.365-3.264-.505-1.154-1.354-1.789-2.615-2.025M676.192 253.39c-1.725.353-3.087.497-4.063.338-.475-.128-.95-.255-1.185-.521-.329-.292-.563-.559-.746-1.015-.253-.577-.341-1.008-.36-1.319l1.395-.645c.019.311.202.767.455 1.344.044.216.209.362.373.508.165.146.355.197.64.273 1.736.364 4.753-.254 8.957-1.878l1.37-.549-.562-2.086.913-.367 3.816 10.088-.913.367-.809-1.541-10.881 4.112.448 1.75-.887.271-2.009-5.427.887-.271.854 1.756 10.88-4.113-1.301-3.506-1.585.594c-2.093.967-3.963 1.485-5.687 1.837M687.273 261.452l-.309-1.508.888-.272 2.974 9.048-2.644 1.124-.341-1.008 1.522-1.12-1.357-4.438-5.015 1.611 1.049 2.929 1.578-.188.341 1.008-4.128 1.338-.341-1.008 1.421-.74-.928-2.998-5.256 1.749 1.826 4.971 2.598.187.005 1.121-3.277.446-3.271-9.839.887-.272.645 1.395zM692.059 276.282l-1.023-3.024-3.993.457-.29-1.198 4.862-1.04 3.2 11.247-4.8 1.566-.315-1.103 3.608-1.681-.782-3.164-11.342 3.174.529 2.587-.888.271-1.937-6.834.888-.272.821 2.258zM689.118 292.198l-.176-.862c-.234-.266-.709-.393-1.375-.572-.665-.178-1.451-.287-2.426-.446s-1.641-.338-2.117-.465q-.712-.191-.778-.515l-.555-2.491.862-.177.322.698c.07.121.329.292.684.489.38.102.951.254 1.685.553l2.281.611c.545.248.995.471 1.324.762.039-.906.338-1.641.801-2.229a3.86 3.86 0 0 1 2.169-1.253c1.414-.334 2.58-.123 3.307.581.728.704 1.329 1.884 1.707 3.513.114.336.177.862.24 1.388.037.621.125 1.052.239 1.389l.624 2.611-.888.272-.619-1.49-11.309 2.673.257 1.699-.836.082-1.318-5.345.862-.176.568 1.68 4.793-1.16zm6.997-.264a19 19 0 0 0-.213-1.483c-.246-.983-.594-1.585-1.088-2.023s-1.305-.452-2.288-.206-1.705.664-2.073 1.278c-.369.614-.477 1.4-.231 2.383.246.982.378 1.629.517 1.87l5.56-1.362zM698.302 302.4l-.687-3.138-4.012.148-.195-1.173 4.951-.609 2.242 11.398-4.888 1.135-.195-1.173 3.722-1.345-.471-3.182-11.588 2.191.314 2.631-.863.176-1.385-6.992.862-.176.7 2.326zM688.94 319.855c.47-.994 1.225-1.912 2.189-2.469.989-.651 2.213-1.036 3.601-1.276 1.363-.144 2.675-.098 3.764.398 1.115.4 2.033 1.156 2.805 2.076.772.919 1.183 2.048 1.353 3.316.151.957.156 2.079-.011 3.46l-.058.596-3.321.23-.169-1.267 2.257-.822c.146-.164.248-.544.254-.95s.065-1.001-.093-1.553a3.48 3.48 0 0 0-.992-1.997c-.564-.559-1.273-.953-2.223-1.207-.951-.255-1.977-.224-3.22-.15-1.172.195-2.155.441-3.094.903-.938.461-1.592.999-2.08 1.683-.489.684-.623 1.565-.542 2.401.132.647.195 1.173.404 1.535.114.336.348.602.582.869l1.901.509-.021 1.217-2.719-.118c-.044-.215-.132-.646-.41-1.128-.183-.457-.392-.818-.48-1.249-.089-.431-.272-.888-.309-1.509.02-1.217.136-2.408.632-3.498M703.842 333.423l-.932.056-.422-1.845-9.393.845 2.387 1.353 7.08 4.749.526-.063.053-1.718.932-.056.463 5.115-.932.056-.334-1.413-11.593 1.07-.028 1.622-.931.056-.438-5.21.932-.056.378 1.629 9.489-.819-2.318-1.232-7.15-4.87-.621.038-.053 1.717-.931.056-.438-5.21.932-.056.309 1.509 11.593-1.07.096-1.502.932-.056zM705.123 353.73l-4.874.324-.074-1.242 3.759-.725-.027-4.081-11.751.518-.054 3.245-.932.056-.378-7.333.932-.056.276 2.009 11.561-.569.129-2.002.932-.056zM704.042 357.006l.192-1.477.906.039-.038 5.083-.906-.039-.188-1.578-4.988-.013-.039 6.61 4.987.013.192-1.477.906.039-.012 4.988-.906-.039-.214-1.483-11.623.043-.192 1.476-.906-.039.012-4.988.906.04.189 1.578 5.393.019.039-6.61-5.393-.019-.217 1.571-.906-.039-.058-5.108.906.039.214 1.483zM705.084 375.925l-.034 2.028-13.073 3.932-.21 1.166-.907-.039.203-4.937.906.039.093 1.553 2.853-.763.235-5.438-2.68-1.023-.217 1.571-.907-.039.171-4.436.906.039.1 1.147zm-3.05 1.118 1.63-.379-1.686-.553-5.929-2.2-.246 4.721zM695.449 388.316c-1.711-.458-2.921-.885-3.769-1.519-.425-.318-.754-.61-.868-.946-.208-.361-.201-.767-.195-1.172.058-.596.065-1.002.236-1.261l1.528.002c-.077.285-.109.785-.167 1.381q-.076.285.133.647c.044.215.208.361.468.532 1.342 1.073 4.409 1.793 8.889 2.179l1.502.096.37-2.141.906.039-.944 10.747-.906-.039-.043-1.743-11.533-1.053-.389 1.831-.906-.039.527-5.766.906.039-.009 1.933 11.533 1.053.303-3.79-1.692-.148a52 52 0 0 1-5.88-.862M697.09 404.238c-.192 1.476-.713 2.661-1.607 3.338-.8.702-1.877.923-3.164.782-1.381-.167-2.42-.852-3.071-1.842-.652-.989-.821-2.257-.63-3.733.051-.19.102-.38.058-.596s.102-.38.178-.665c.179-.665.262-1.356.415-1.926l.377-2.548.88.135-.027 1.622 11.571 1.674.502-1.495.881.134-.805 5.285-.881-.134-.112-1.864-4.308-.645zm-7.234-2.652c-.051.19-.153.571-.16.976-.185 1.071.017 1.838.555 2.492s1.247 1.047 2.343 1.137c.976.159 1.838-.017 2.371-.485.628-.443.927-1.178 1.112-2.249l.294-1.856-6.286-.87zm10.939 15.053-.88-.135.052-1.717-11.475-1.649-.458 1.711-.881-.134.735-5.405.881.134-.053 1.717 11.476 1.649.458-1.711.881.135zM697.984 424.849l.572-1.375.856.229-1.134 4.993-.856-.229.123-1.597-4.898-1.109-1.421 6.444 4.898 1.109.572-1.375.855.229-1.109 4.898-.855-.229.097-1.502-11.367-2.435-.477 1.4-.855-.229 1.109-4.898.855.23-.097 1.502 5.303 1.115 1.421-6.444-5.303-1.115-.528 1.59-.855-.229 1.134-4.993.855.229-.097 1.502zM694.952 443.389l-.535 1.996-13.577 1.251-.495 1.089-.856-.229 1.179-4.777.855.229-.217 1.572 2.89-.143 1.305-5.252-2.457-1.473-.598 1.469-.855-.229 1.051-4.302.855.23-.115 1.191zm-3.157.376 1.743-.042-1.514-.813-5.338-3.264-1.128 4.587zM689.427 458.308l.914-1.894.83.324-1.558 4.675-8.803-.219-2.408-.136 2.103 1.276 7.168 5.18-1.559 4.675-.829-.324.439-2.021-11.512-2.27-.693 1.444-.83-.324 1.686-5.15.83.324-.338 1.641 8.249 1.905 3.567.752-2.311-1.638-8.251-6.081.401-1.115 9.475-.008 3.745.087-3.363-1.513-7.747-3.4-.769 1.73-.83-.324 1.533-4.581.83.324-.313 1.546z"/><path d="m683.495 478.923-.725 1.945-13.618-.492-.566.969-.829-.324 1.843-4.599.83.324-.408 1.521 2.909.168 1.971-5.074-2.26-1.828-.788 1.419-.83-.325 1.621-4.149.83.324-.211 1.166zm-3.245-.055 1.692.148-1.367-.978-4.85-3.947-1.698 4.434zM678.427 487.954l.832-1.203.83.324-1.017 2.274c-.223.45-.324.83-.521 1.185-.274.64-.426 1.21-.674 1.755-.744 1.634-1.524 2.647-2.463 3.108-.913.367-1.94.397-3.219-.149-.9-.445-1.584-.934-2.096-1.682-.512-.749-.714-1.516-.77-2.447-.056-.932.198-1.882.643-2.782.197-.355.273-.64.47-.994.197-.355.248-.545.369-.615l-3.744-1.614-1.207 2.223-.83-.324 2.504-5.542.83.324-.503 1.495zm-7.555.828c-.445.899-.459 1.71-.187 2.598.271.888 1.025 1.497 2.304 2.043.995.471 1.806.484 2.383.232.697-.323 1.186-1.007 1.656-2.001.197-.355.299-.735.426-1.21l.153-.57-6.112-2.657c-.077.285-.325.83-.623 1.565M661.96 495.052a6.46 6.46 0 0 1 3.189-.877q1.824.03 3.706.993c1.254.641 2.267 1.422 2.919 2.411.746 1.015 1.062 2.118 1.162 3.266.1 1.147-.111 2.313-.727 3.472-.444.899-1.105 1.843-1.911 2.951l-.343.519-2.932-1.6.496-1.09 2.375.637c.216-.044.482-.279.774-.608s.515-.779.857-1.298c.394-.709.477-1.4.301-2.262-.107-.742-.524-1.465-1.132-2.239-.633-.679-1.481-1.313-2.64-1.929-1.09-.496-2.11-.871-3.085-1.031s-1.908-.104-2.726.288c-.793.297-1.351.861-1.796 1.76-.273.64-.495 1.09-.502 1.495-.102.38-.083.691.03 1.027l1.336 1.478-.66.944-2.217-1.613.306-1.14c.127-.475.134-.881.261-1.356.102-.38.35-.925.598-1.47.616-1.159 1.371-2.077 2.361-2.728M662.332 522.551l-.779-.514.769-1.73-8.106-4.718 1.176 2.454 2.943 8.021.45.222 1.073-1.342.779.514-2.604 4.395-.779-.514.572-1.375-10.044-5.849-.952 1.273-.805-.419 2.629-4.49.805.419-.718 1.539 8.176 4.839-1.227-2.264-2.918-8.116-.615-.368-1.098 1.437-.804-.419 2.655-4.585.804.419-.598 1.47 10.045 5.849.927-1.178.778.514zM655.614 533.177c-.247.545-.375 1.02-.572 1.375s-.393.709-.565.969c-.857 1.298-1.707 2.191-2.62 2.557s-1.82.328-2.694-.212-1.291-1.263-1.467-2.125-.068-1.648.282-2.573c-.661.944-1.434 1.551-2.297 1.728-.862.176-1.647.067-2.426-.447-1.134-.711-1.811-1.605-1.911-2.753-.126-1.052.231-2.382 1.26-3.94.368-.614.806-1.108 1.244-1.602.412-.399.799-.703 1.065-.937.267-.234.413-.398.508-.373l2.52 1.999-.514.779-2.3-.921c-.602.347-1.161.911-1.821 1.854-.489.684-.572 1.375-.44 2.021.133.647.696 1.205 1.57 1.745.614.368 1.279.547 2.021.44s1.395-.645 1.935-1.519l.711-1.133.874.539-.54.874c-.317.425-.444.9-.572 1.375-.032.5.031 1.027.214 1.483s.582.869 1.101 1.212c.684.489 1.375.572 1.926.414.552-.158 1.085-.626 1.574-1.31.317-.424.539-.874.546-1.279q.153-.571-.056-.932l-1.291-1.263.66-.943 2.483 1.378c-.058.596-.255.95-.408 1.52M645.827 546.139l1.116-1.127.779.515-1.466 2.051c-.292.33-.515.779-.883 1.394-.343.519-.54.873-.711 1.133-.978 1.368-1.923 2.235-2.811 2.506-.887.272-1.768.138-2.521-.472-.684-.488-1.222-1.142-1.399-2.004-.201-.767-.093-1.553.231-2.383q-.99 1.416-2.321 1.823c-.862.176-1.743.042-2.497-.567q-1.52-1.171-1.669-2.892c-.1-1.147.402-2.642 1.646-4.244.292-.33.489-.684.781-1.013.609-.754.952-1.273 1.073-1.343l1.466-2.051.779.514-.762 1.324zm-11.917-3.804c-.781 1.013-1.035 1.963-1.024 2.68.012.716.525 1.464 1.304 1.978.753.61 1.513.813 2.16.681s1.3-.67 1.935-1.519c.78-1.013 1.174-1.722 1.346-1.982l-4.528-3.25c-.12.07-.558.564-1.193 1.412m6.055 3.252-.635.849q-.733 1.025-.535 1.995c.133.647.576 1.275 1.259 1.764.684.488 1.35.667 1.971.629.551-.157 1.179-.6 1.839-1.544.292-.329.515-.779.712-1.133l.197-.355-4.173-3.053c-.051.19-.318.424-.635.848M637.051 559.881l-1.244 1.602-12.955-4.49-.825.798-.753-.61 3.072-3.862.753.609-.857 1.298 2.68 1.024 3.389-4.287-1.607-2.365-1.116 1.126-.754-.609 2.755-3.438.753.609-.59 1.064zm-3.085-1.03 1.565.622-1.05-1.401-3.493-5.214-2.926 3.698zM619.699 560.019a6.2 6.2 0 0 1 3.365-.015c1.141.305 2.274 1.017 3.357 1.918q1.623 1.351 2.24 3.045a6.5 6.5 0 0 1 .3 3.441c-.211 1.166-.801 2.23-1.557 3.148-.609.754-1.529 1.526-2.569 2.367l-.508.374-2.418-2.38.85-.892 2.128 1.181c.216-.044.552-.158.939-.462.361-.208.774-.607 1.117-1.126a3.02 3.02 0 0 0 .871-2.11c.108-.785-.094-1.553-.581-2.396-.487-.844-1.069-1.712-2.082-2.493-.918-.756-1.766-1.39-2.691-1.74q-1.388-.525-2.642-.402-1.255.121-2.169 1.252c-.438.494-.756.918-.858 1.298-.196.355-.178.665-.254.95l.853 1.757-.92.772-1.683-2.081q.219-.246.591-1.064c.222-.449.419-.804.616-1.159q.295-.532.952-1.273c.635-.848 1.65-1.595 2.753-1.91M615.784 579.952q.473 1.655.091 3.08c-.255.951-.699 1.85-1.499 2.553-.85.892-1.814 1.449-2.797 1.695-.982.246-2.079.156-3.098-.219-1.02-.376-2.059-1.061-3.046-1.937-1.058-.996-1.874-2.132-2.259-3.355-.411-1.129-.606-2.302-.326-3.347.186-1.071.751-2.04 1.481-2.863a6.86 6.86 0 0 1 2.822-1.79c.983-.246 2.079-.156 3.099.219s2.058 1.061 3.046 1.937l2.113-2.184-3.969-3.814-1.282.981-.633-.679 3.548-3.735.658.584-.952 1.273 8.337 8.039 1.161-.911.633.679-3.522 3.64-.633-.679.952-1.273-3.64-3.521-2.113 2.184c.981 1.281 1.512 2.34 1.828 3.443m-1.175 1.723c-.29-1.199-1.15-2.549-2.606-3.958-1.292-1.263-2.615-2.025-3.876-2.261s-2.364.08-3.214.972c-.851.893-1.105 1.843-.815 3.041s1.15 2.549 2.701 3.983c1.291 1.263 2.52 2 3.756 2.331s2.243-.01 3.093-.903c.851-.892 1.131-1.938.961-3.205M597.512 590.742c-.786-.108-1.831-.388-3.066-.72l-1.996-.534q-.57-.153-.932.056l-.697.322-.633-.679 1.649-1.595c.241-.139.577-.253 1.243-.075l2.566.688c1.21.426 2.16.681 2.946.789.665.179 1.191.116 1.483-.213l.825-.798-3.633-3.927-1.377.955-.633-.679 3.782-3.468.633.679-1.022 1.152 7.899 8.533 1.256-.885.633.679-3.661 3.398-.633-.678.952-1.273-3.633-3.928-1.212 1.102.892 6.554 1.256-.886.633.679-3.394 3.165-.633-.679.927-1.178-.746-6.718c-.172.259-.888.271-1.674.162M588.233 591.923a4.9 4.9 0 0 1 3.092.624c1.089.496 1.982 1.346 2.918 2.412s1.538 2.246 1.828 3.444.295 2.32-.08 3.339-.941 1.989-1.861 2.761c-1.452 1.241-3.012 1.74-4.583 1.522s-3.035-1.22-4.535-2.844c-.936-1.066-1.537-2.246-1.827-3.444s-.295-2.32.105-3.435c.306-1.14.941-1.989 1.861-2.761.996-1.057 2.029-1.493 3.082-1.618m6.561 8.582c-.169-1.268-.909-2.688-2.244-4.166-1.241-1.453-2.444-2.285-3.654-2.711s-2.288-.205-3.208.567q-1.38 1.158-1.125 3.059t2.219 4.262c1.241 1.453 2.444 2.284 3.654 2.711q1.853.496 3.233-.662t1.125-3.06M586.101 609.38l1.326-.765.607.774-1.935 1.519c-.361.208-.774.607-1.211 1.101-.413.399-.8.702-1.041.842-1.402 1.05-2.461 1.581-3.392 1.637-.932.056-1.736-.363-2.344-1.137-.538-.654-.835-1.446-.821-2.257q.02-1.217.896-2.205-1.38 1.158-2.739 1.1c-.906-.04-1.711-.459-2.318-1.233-.747-1.015-1.062-2.118-.852-3.284s1.163-2.438 2.711-3.653c.387-.304.748-.513 1.015-.747.774-.607 1.256-.885 1.401-1.05l1.935-1.519.513.749-1.117 1.126zm-10.385-6.857c-1.015.747-1.53 1.526-1.638 2.311-.109.786.093 1.553.7 2.327.608.774 1.222 1.142 1.913 1.226.691.083 1.388-.24 2.283-.917 1.015-.746 1.668-1.284 1.839-1.544l-3.41-4.377c-.38-.102-.888.272-1.687.974m4.931 4.785-.774.607q-.98.807-1.105 1.843c-.083.691.144 1.363.777 2.042.538.653 1.152 1.021 1.748 1.079s1.293-.264 2.188-.941c.387-.304.679-.633 1.066-.937l.266-.234-3.177-4.111c-.336.114-.602.348-.989.652"/><circle cx="171.44" cy="141.395" r="2"/><circle cx="575.939" cy="115.765" r="2"/></g></svg>